<svg aria-hidden="true" style="position: absolute; width: 0; height: 0; overflow: hidden;" version="1.1" xmlns="http://www.w3.org/2000/svg" xmlns:xlink="http://www.w3.org/1999/xlink">
<defs>
<symbol id="Алкоголь" viewBox="0 0 35 32">
<path d="M13.532 0.532h7.516c7.364 0 13.333 5.97 13.333 13.333v4.27c0 7.364-5.97 13.333-13.333 13.333h-7.516c-7.364 0-13.333-5.97-13.333-13.333v-4.27c0-7.364 5.97-13.333 13.333-13.333z"></path>
</symbol>
<symbol id="Коммуналка и связь" viewBox="0 0 40 32">
<path d="M13.617 0.058h12.936c7.52 0 13.617 6.097 13.617 13.617v4.361c0 7.52-6.097 13.617-13.617 13.617h-12.936c-7.52 0-13.617-6.097-13.617-13.617v-4.361c0-7.52 6.097-13.617 13.617-13.617z"></path>
</symbol>
<symbol id="Образование" viewBox="0 0 40 32">
<path d="M13.617 0.058h12.936c7.52 0 13.617 6.097 13.617 13.617v4.361c0 7.52-6.097 13.617-13.617 13.617h-12.936c-7.52 0-13.617-6.097-13.617-13.617v-4.361c0-7.52 6.097-13.617 13.617-13.617z"></path>
</symbol>
<symbol id="Прочее" viewBox="0 0 40 32">
<path d="M13.617 0.058h12.936c7.52 0 13.617 6.097 13.617 13.617v4.361c0 7.52-6.097 13.617-13.617 13.617h-12.936c-7.52 0-13.617-6.097-13.617-13.617v-4.361c0-7.52 6.097-13.617 13.617-13.617z"></path>
</symbol>
<symbol id="Продукты" viewBox="0 0 37 32">
<path d="M14.249 0.492h8.632c7.52 0 13.617 6.097 13.617 13.617v4.085c0 7.52-6.097 13.617-13.617 13.617h-8.632c-7.52 0-13.617-6.097-13.617-13.617v-4.085c0-7.52 6.097-13.617 13.617-13.617z"></path>
</symbol>
<symbol id="Развлечения" viewBox="0 0 40 32">
<path d="M13.864 0.532h12.265c7.364 0 13.333 5.97 13.333 13.333v4.27c0 7.364-5.97 13.333-13.333 13.333h-12.265c-7.364 0-13.333-5.97-13.333-13.333v-4.27c0-7.364 5.97-13.333 13.333-13.333z"></path>
</symbol>
<symbol id="Спорт и хобби" viewBox="0 0 40 32">
<path d="M13.617 0.058h12.936c7.52 0 13.617 6.097 13.617 13.617v4.361c0 7.52-6.097 13.617-13.617 13.617h-12.936c-7.52 0-13.617-6.097-13.617-13.617v-4.361c0-7.52 6.097-13.617 13.617-13.617z"></path>
</symbol>
<symbol id="Техника" viewBox="0 0 40 32">
<path d="M13.617 0.058h12.936c7.52 0 13.617 6.097 13.617 13.617v4.361c0 7.52-6.097 13.617-13.617 13.617h-12.936c-7.52 0-13.617-6.097-13.617-13.617v-4.361c0-7.52 6.097-13.617 13.617-13.617z"></path>
</symbol>
<symbol id="Транспорт" viewBox="0 0 35 32">
<path d="M13.635 0.532h7.984c7.364 0 13.333 5.97 13.333 13.333v4.27c0 7.364-5.97 13.333-13.333 13.333h-7.984c-7.364 0-13.333-5.97-13.333-13.333v-4.27c0-7.364 5.97-13.333 13.333-13.333z"></path>
</symbol>
<symbol id="Всё для дома" viewBox="0 0 39 32">
<path d="M13.333 0.532h12.667c7.364 0 13.333 5.97 13.333 13.333v4.27c0 7.364-5.97 13.333-13.333 13.333h-12.667c-7.364 0-13.333-5.97-13.333-13.333v-4.27c0-7.364 5.97-13.333 13.333-13.333z"></path>
</symbol>
<symbol id="Здоровье" viewBox="0 0 36 32">
<path d="M13.738 0.532h8.452c7.364 0 13.333 5.97 13.333 13.333v4.27c0 7.364-5.97 13.333-13.333 13.333h-8.452c-7.364 0-13.333-5.97-13.333-13.333v-4.27c0-7.364 5.97-13.333 13.333-13.333z"></path>
</symbol>
<symbol id="З/П" viewBox="0 0 39 32">
<path d="M13.333 0.603h12.667c7.364 0 13.333 5.97 13.333 13.333v4.16c0 7.364-5.97 13.333-13.333 13.333h-12.667c-7.364 0-13.333-5.97-13.333-13.333v-4.16c0-7.364 5.97-13.333 13.333-13.333z"></path>
</symbol>
<symbol id="Доп. доход" viewBox="0 0 39 32">
<path d="M13.333 0.603h12.667c7.364 0 13.333 5.97 13.333 13.333v4.16c0 7.364-5.97 13.333-13.333 13.333h-12.667c-7.364 0-13.333-5.97-13.333-13.333v-4.16c0-7.364 5.97-13.333 13.333-13.333z"></path>
</symbol>
</defs>
</svg>
